<svg width="233" height="100" viewBox="0 0 233 100" fill="none" xmlns="http://www.w3.org/2000/svg">
<rect width="89.4692" height="61.9212" transform="matrix(0.853343 0.52135 -0.532466 0.846451 155.971 0)" fill="#EC5242"/>
<ellipse cx="161.786" cy="29.4981" rx="5.12502" ry="4.69998" fill="white"/>
<ellipse cx="192.536" cy="79.6312" rx="3.98613" ry="3.65554" fill="white"/>
<path d="M160.383 28.5353L183.994 43.598" stroke="white"/>
<path d="M167.397 65.6513L191.705 79.747" stroke="white"/>
<line y1="-0.5" x2="28.391" y2="-0.5" transform="matrix(-0.588631 0.808402 -0.852802 -0.522234 183.239 42.7808)" stroke="white"/>
<path d="M22.3941 33.172L19.2261 24.514C19.0701 24.13 18.9081 23.674 18.7401 23.146C18.5721 22.618 18.4041 22.048 18.2361 21.436C18.0801 22.048 17.9181 22.624 17.7501 23.164C17.5821 23.692 17.4201 24.154 17.2641 24.55L14.1141 33.172H22.3941ZM30.9441 43H27.2001C26.7801 43 26.4381 42.898 26.1741 42.694C25.9101 42.478 25.7121 42.214 25.5801 41.902L23.6361 36.592H12.8541L10.9101 41.902C10.8141 42.178 10.6281 42.43 10.3521 42.658C10.0761 42.886 9.73414 43 9.32614 43H5.54614L15.7881 16.972H20.7201L30.9441 43ZM38.4982 20.824V28.528H48.2542V32.398H38.4982V43H33.6382V16.972H50.0542V20.824H38.4982ZM61.8949 29.356C62.8069 29.356 63.5989 29.242 64.2709 29.014C64.9549 28.786 65.5129 28.474 65.9449 28.078C66.3889 27.67 66.7189 27.19 66.9349 26.638C67.1509 26.086 67.2589 25.48 67.2589 24.82C67.2589 23.5 66.8209 22.486 65.9449 21.778C65.0809 21.07 63.7549 20.716 61.9669 20.716H58.8709V29.356H61.8949ZM74.3509 43H69.9769C69.1489 43 68.5489 42.676 68.1769 42.028L62.7049 33.694C62.5009 33.382 62.2729 33.16 62.0209 33.028C61.7809 32.896 61.4209 32.83 60.9409 32.83H58.8709V43H54.0289V16.972H61.9669C63.7309 16.972 65.2429 17.158 66.5029 17.53C67.7749 17.89 68.8129 18.4 69.6169 19.06C70.4329 19.72 71.0329 20.512 71.4169 21.436C71.8009 22.348 71.9929 23.356 71.9929 24.46C71.9929 25.336 71.8609 26.164 71.5969 26.944C71.3449 27.724 70.9729 28.432 70.4809 29.068C70.0009 29.704 69.4009 30.262 68.6809 30.742C67.9729 31.222 67.1629 31.6 66.2509 31.876C66.5629 32.056 66.8509 32.272 67.1149 32.524C67.3789 32.764 67.6189 33.052 67.8349 33.388L74.3509 43ZM101.632 29.986C101.632 31.894 101.314 33.664 100.678 35.296C100.054 36.916 99.1661 38.32 98.0141 39.508C96.8621 40.696 95.4761 41.626 93.8561 42.298C92.2361 42.958 90.4361 43.288 88.4561 43.288C86.4881 43.288 84.6941 42.958 83.0741 42.298C81.4541 41.626 80.0621 40.696 78.8981 39.508C77.7461 38.32 76.8521 36.916 76.2161 35.296C75.5801 33.664 75.2621 31.894 75.2621 29.986C75.2621 28.078 75.5801 26.314 76.2161 24.694C76.8521 23.062 77.7461 21.652 78.8981 20.464C80.0621 19.276 81.4541 18.352 83.0741 17.692C84.6941 17.02 86.4881 16.684 88.4561 16.684C89.7761 16.684 91.0181 16.84 92.1821 17.152C93.3461 17.452 94.4141 17.884 95.3861 18.448C96.3581 19 97.2281 19.678 97.9961 20.482C98.7761 21.274 99.4361 22.162 99.9761 23.146C100.516 24.13 100.924 25.198 101.2 26.35C101.488 27.502 101.632 28.714 101.632 29.986ZM96.6821 29.986C96.6821 28.558 96.4901 27.28 96.1061 26.152C95.7221 25.012 95.1761 24.046 94.4681 23.254C93.7601 22.462 92.8961 21.856 91.8761 21.436C90.8681 21.016 89.7281 20.806 88.4561 20.806C87.1841 20.806 86.0381 21.016 85.0181 21.436C84.0101 21.856 83.1461 22.462 82.4261 23.254C81.7181 24.046 81.1721 25.012 80.7881 26.152C80.4041 27.28 80.2121 28.558 80.2121 29.986C80.2121 31.414 80.4041 32.698 80.7881 33.838C81.1721 34.966 81.7181 35.926 82.4261 36.718C83.1461 37.498 84.0101 38.098 85.0181 38.518C86.0381 38.938 87.1841 39.148 88.4561 39.148C89.7281 39.148 90.8681 38.938 91.8761 38.518C92.8961 38.098 93.7601 37.498 94.4681 36.718C95.1761 35.926 95.7221 34.966 96.1061 33.838C96.4901 32.698 96.6821 31.414 96.6821 29.986Z" fill="#EC5242"/>
<path d="M124.064 20.95H116.216V43H111.374V20.95H103.526V16.972H124.064V20.95ZM132.33 20.824V28.042H141.438V31.768H132.33V39.13H143.886V43H127.47V16.972H143.886V20.824H132.33ZM165.489 36.862C165.753 36.862 165.987 36.964 166.191 37.168L168.099 39.238C167.043 40.546 165.741 41.548 164.193 42.244C162.657 42.94 160.809 43.288 158.649 43.288C156.717 43.288 154.977 42.958 153.429 42.298C151.893 41.638 150.579 40.72 149.487 39.544C148.395 38.368 147.555 36.964 146.967 35.332C146.391 33.7 146.103 31.918 146.103 29.986C146.103 28.03 146.415 26.242 147.039 24.622C147.663 22.99 148.539 21.586 149.667 20.41C150.807 19.234 152.163 18.322 153.735 17.674C155.307 17.014 157.047 16.684 158.955 16.684C160.851 16.684 162.531 16.996 163.995 17.62C165.471 18.244 166.725 19.06 167.757 20.068L166.137 22.318C166.041 22.462 165.915 22.588 165.759 22.696C165.615 22.804 165.411 22.858 165.147 22.858C164.967 22.858 164.781 22.81 164.589 22.714C164.397 22.606 164.187 22.48 163.959 22.336C163.731 22.18 163.467 22.012 163.167 21.832C162.867 21.652 162.519 21.49 162.123 21.346C161.727 21.19 161.265 21.064 160.737 20.968C160.221 20.86 159.621 20.806 158.937 20.806C157.773 20.806 156.705 21.016 155.733 21.436C154.773 21.844 153.945 22.444 153.249 23.236C152.553 24.016 152.013 24.976 151.629 26.116C151.245 27.244 151.053 28.534 151.053 29.986C151.053 31.45 151.257 32.752 151.665 33.892C152.085 35.032 152.649 35.992 153.357 36.772C154.065 37.552 154.899 38.152 155.859 38.572C156.819 38.98 157.851 39.184 158.955 39.184C159.615 39.184 160.209 39.148 160.737 39.076C161.277 39.004 161.769 38.89 162.213 38.734C162.669 38.578 163.095 38.38 163.491 38.14C163.899 37.888 164.301 37.582 164.697 37.222C164.817 37.114 164.943 37.03 165.075 36.97C165.207 36.898 165.345 36.862 165.489 36.862ZM193.358 16.972V43H188.498V31.624H176.276V43H171.416V16.972H176.276V28.168H188.498V16.972H193.358ZM28.883 63.824V71.528H38.639V75.398H28.883V86H24.023V59.972H40.439V63.824H28.883ZM49.2736 63.824V71.042H58.3816V74.768H49.2736V82.13H60.8296V86H44.4136V59.972H60.8296V63.824H49.2736ZM78.9807 64.706C78.8367 64.958 78.6807 65.144 78.5127 65.264C78.3567 65.372 78.1587 65.426 77.9187 65.426C77.6667 65.426 77.3907 65.336 77.0907 65.156C76.8027 64.964 76.4547 64.754 76.0467 64.526C75.6387 64.298 75.1587 64.094 74.6067 63.914C74.0667 63.722 73.4247 63.626 72.6807 63.626C72.0087 63.626 71.4207 63.71 70.9167 63.878C70.4127 64.034 69.9867 64.256 69.6387 64.544C69.3027 64.832 69.0507 65.18 68.8827 65.588C68.7147 65.984 68.6307 66.422 68.6307 66.902C68.6307 67.514 68.7987 68.024 69.1347 68.432C69.4827 68.84 69.9387 69.188 70.5027 69.476C71.0667 69.764 71.7087 70.022 72.4287 70.25C73.1487 70.478 73.8867 70.724 74.6427 70.988C75.3987 71.24 76.1367 71.54 76.8567 71.888C77.5767 72.224 78.2187 72.656 78.7827 73.184C79.3467 73.7 79.7967 74.336 80.1327 75.092C80.4807 75.848 80.6547 76.766 80.6547 77.846C80.6547 79.022 80.4507 80.126 80.0427 81.158C79.6467 82.178 79.0587 83.072 78.2787 83.84C77.5107 84.596 76.5687 85.196 75.4527 85.64C74.3367 86.072 73.0587 86.288 71.6187 86.288C70.7907 86.288 69.9747 86.204 69.1707 86.036C68.3667 85.88 67.5927 85.652 66.8487 85.352C66.1167 85.052 65.4267 84.692 64.7787 84.272C64.1307 83.852 63.5547 83.384 63.0507 82.868L64.4727 80.546C64.5927 80.378 64.7487 80.24 64.9407 80.132C65.1327 80.012 65.3367 79.952 65.5527 79.952C65.8527 79.952 66.1767 80.078 66.5247 80.33C66.8727 80.57 67.2867 80.84 67.7667 81.14C68.2467 81.44 68.8047 81.716 69.4407 81.968C70.0887 82.208 70.8627 82.328 71.7627 82.328C73.1427 82.328 74.2107 82.004 74.9667 81.356C75.7227 80.696 76.1007 79.754 76.1007 78.53C76.1007 77.846 75.9267 77.288 75.5787 76.856C75.2427 76.424 74.7927 76.064 74.2287 75.776C73.6647 75.476 73.0227 75.224 72.3027 75.02C71.5827 74.816 70.8507 74.594 70.1067 74.354C69.3627 74.114 68.6307 73.826 67.9107 73.49C67.1907 73.154 66.5487 72.716 65.9847 72.176C65.4207 71.636 64.9647 70.964 64.6167 70.16C64.2807 69.344 64.1127 68.342 64.1127 67.154C64.1127 66.206 64.2987 65.282 64.6707 64.382C65.0547 63.482 65.6067 62.684 66.3267 61.988C67.0467 61.292 67.9347 60.734 68.9907 60.314C70.0467 59.894 71.2587 59.684 72.6267 59.684C74.1627 59.684 75.5787 59.924 76.8747 60.404C78.1707 60.884 79.2747 61.556 80.1867 62.42L78.9807 64.706ZM103.058 63.95H95.2105V86H90.3685V63.95H82.5205V59.972H103.058V63.95ZM111.324 86H106.464V59.972H111.324V86ZM139.454 59.972L128.942 86H124.568L114.056 59.972H117.944C118.364 59.972 118.706 60.074 118.97 60.278C119.234 60.482 119.432 60.746 119.564 61.07L125.702 76.946C125.906 77.462 126.098 78.032 126.278 78.656C126.47 79.268 126.65 79.91 126.818 80.582C126.962 79.91 127.118 79.268 127.286 78.656C127.454 78.032 127.64 77.462 127.844 76.946L133.946 61.07C134.042 60.794 134.228 60.542 134.504 60.314C134.792 60.086 135.14 59.972 135.548 59.972H139.454ZM153.826 76.172L150.658 67.514C150.502 67.13 150.34 66.674 150.172 66.146C150.004 65.618 149.836 65.048 149.668 64.436C149.512 65.048 149.35 65.624 149.182 66.164C149.014 66.692 148.852 67.154 148.696 67.55L145.546 76.172H153.826ZM162.376 86H158.632C158.212 86 157.87 85.898 157.606 85.694C157.342 85.478 157.144 85.214 157.012 84.902L155.068 79.592H144.286L142.342 84.902C142.246 85.178 142.06 85.43 141.784 85.658C141.508 85.886 141.166 86 140.758 86H136.978L147.22 59.972H152.152L162.376 86ZM180.316 82.004V86H165.07V59.972H169.912V82.004H180.316Z" fill="#F5F5F5"/>
</svg>
