<svg width="124" height="51" viewBox="0 0 124 51" fill="none" xmlns="http://www.w3.org/2000/svg">
<rect width="46.0632" height="31.8801" transform="matrix(0.853343 0.52135 -0.532466 0.846451 83.9751 0)" fill="#EC5242"/>
<ellipse cx="86.9688" cy="15.1871" rx="2.63862" ry="2.41978" fill="white"/>
<ellipse cx="102.8" cy="40.9981" rx="2.05226" ry="1.88205" fill="white"/>
<path d="M86.2467 14.6914L98.4028 22.4464" stroke="white"/>
<path d="M89.8577 33.8005L102.373 41.0577" stroke="white"/>
<line y1="-0.5" x2="14.6171" y2="-0.5" transform="matrix(-0.588631 0.808402 -0.852802 -0.522234 98.014 22.0257)" stroke="white"/>
<path d="M10.8301 16.54L9.07008 11.73C8.98341 11.5167 8.89341 11.2633 8.80008 10.97C8.70675 10.6767 8.61341 10.36 8.52008 10.02C8.43341 10.36 8.34341 10.68 8.25008 10.98C8.15675 11.2733 8.06675 11.53 7.98008 11.75L6.23008 16.54H10.8301ZM15.5801 22H13.5001C13.2667 22 13.0767 21.9433 12.9301 21.83C12.7834 21.71 12.6734 21.5633 12.6001 21.39L11.5201 18.44H5.53008L4.45008 21.39C4.39674 21.5433 4.29341 21.6833 4.14008 21.81C3.98674 21.9367 3.79674 22 3.57008 22H1.47008L7.16008 7.54H9.90008L15.5801 22ZM19.7768 9.68V13.96H25.1968V16.11H19.7768V22H17.0768V7.54H26.1968V9.68H19.7768ZM32.7749 14.42C33.2816 14.42 33.7216 14.3567 34.0949 14.23C34.4749 14.1033 34.7849 13.93 35.0249 13.71C35.2716 13.4833 35.4549 13.2167 35.5749 12.91C35.6949 12.6033 35.7549 12.2667 35.7549 11.9C35.7549 11.1667 35.5116 10.6033 35.0249 10.21C34.5449 9.81667 33.8083 9.62 32.8149 9.62H31.0949V14.42H32.7749ZM39.6949 22H37.2649C36.8049 22 36.4716 21.82 36.2649 21.46L33.2249 16.83C33.1116 16.6567 32.9849 16.5333 32.8449 16.46C32.7116 16.3867 32.5116 16.35 32.2449 16.35H31.0949V22H28.4049V7.54H32.8149C33.7949 7.54 34.6349 7.64333 35.3349 7.85C36.0416 8.05 36.6183 8.33333 37.0649 8.7C37.5183 9.06667 37.8516 9.50667 38.0649 10.02C38.2783 10.5267 38.3849 11.0867 38.3849 11.7C38.3849 12.1867 38.3116 12.6467 38.1649 13.08C38.0249 13.5133 37.8183 13.9067 37.5449 14.26C37.2783 14.6133 36.9449 14.9233 36.5449 15.19C36.1516 15.4567 35.7016 15.6667 35.1949 15.82C35.3683 15.92 35.5283 16.04 35.6749 16.18C35.8216 16.3133 35.9549 16.4733 36.0749 16.66L39.6949 22ZM54.8512 14.77C54.8512 15.83 54.6745 16.8133 54.3212 17.72C53.9745 18.62 53.4812 19.4 52.8412 20.06C52.2012 20.72 51.4312 21.2367 50.5312 21.61C49.6312 21.9767 48.6312 22.16 47.5312 22.16C46.4378 22.16 45.4412 21.9767 44.5412 21.61C43.6412 21.2367 42.8678 20.72 42.2212 20.06C41.5812 19.4 41.0845 18.62 40.7312 17.72C40.3778 16.8133 40.2012 15.83 40.2012 14.77C40.2012 13.71 40.3778 12.73 40.7312 11.83C41.0845 10.9233 41.5812 10.14 42.2212 9.48C42.8678 8.82 43.6412 8.30667 44.5412 7.94C45.4412 7.56667 46.4378 7.38 47.5312 7.38C48.2645 7.38 48.9545 7.46667 49.6012 7.64C50.2478 7.80667 50.8412 8.04667 51.3812 8.36C51.9212 8.66667 52.4045 9.04333 52.8312 9.49C53.2645 9.93 53.6312 10.4233 53.9312 10.97C54.2312 11.5167 54.4578 12.11 54.6112 12.75C54.7712 13.39 54.8512 14.0633 54.8512 14.77ZM52.1012 14.77C52.1012 13.9767 51.9945 13.2667 51.7812 12.64C51.5678 12.0067 51.2645 11.47 50.8712 11.03C50.4778 10.59 49.9978 10.2533 49.4312 10.02C48.8712 9.78667 48.2378 9.67 47.5312 9.67C46.8245 9.67 46.1878 9.78667 45.6212 10.02C45.0612 10.2533 44.5812 10.59 44.1812 11.03C43.7878 11.47 43.4845 12.0067 43.2712 12.64C43.0578 13.2667 42.9512 13.9767 42.9512 14.77C42.9512 15.5633 43.0578 16.2767 43.2712 16.91C43.4845 17.5367 43.7878 18.07 44.1812 18.51C44.5812 18.9433 45.0612 19.2767 45.6212 19.51C46.1878 19.7433 46.8245 19.86 47.5312 19.86C48.2378 19.86 48.8712 19.7433 49.4312 19.51C49.9978 19.2767 50.4778 18.9433 50.8712 18.51C51.2645 18.07 51.5678 17.5367 51.7812 16.91C51.9945 16.2767 52.1012 15.5633 52.1012 14.77Z" fill="#EC5242"/>
<path d="M67.3135 9.75H62.9535V22H60.2635V9.75H55.9035V7.54H67.3135V9.75ZM71.9057 9.68V13.69H76.9657V15.76H71.9057V19.85H78.3257V22H69.2057V7.54H78.3257V9.68H71.9057ZM90.3271 18.59C90.4738 18.59 90.6038 18.6467 90.7171 18.76L91.7771 19.91C91.1904 20.6367 90.4671 21.1933 89.6071 21.58C88.7538 21.9667 87.7271 22.16 86.5271 22.16C85.4538 22.16 84.4871 21.9767 83.6271 21.61C82.7738 21.2433 82.0438 20.7333 81.4371 20.08C80.8304 19.4267 80.3638 18.6467 80.0371 17.74C79.7171 16.8333 79.5571 15.8433 79.5571 14.77C79.5571 13.6833 79.7304 12.69 80.0771 11.79C80.4238 10.8833 80.9104 10.1033 81.5371 9.45C82.1704 8.79667 82.9238 8.29 83.7971 7.93C84.6704 7.56333 85.6371 7.38 86.6971 7.38C87.7504 7.38 88.6838 7.55333 89.4971 7.9C90.3171 8.24667 91.0138 8.7 91.5871 9.26L90.6871 10.51C90.6338 10.59 90.5638 10.66 90.4771 10.72C90.3971 10.78 90.2838 10.81 90.1371 10.81C90.0371 10.81 89.9338 10.7833 89.8271 10.73C89.7204 10.67 89.6038 10.6 89.4771 10.52C89.3504 10.4333 89.2038 10.34 89.0371 10.24C88.8704 10.14 88.6771 10.05 88.4571 9.97C88.2371 9.88333 87.9804 9.81333 87.6871 9.76C87.4004 9.7 87.0671 9.67 86.6871 9.67C86.0404 9.67 85.4471 9.78667 84.9071 10.02C84.3738 10.2467 83.9138 10.58 83.5271 11.02C83.1404 11.4533 82.8404 11.9867 82.6271 12.62C82.4138 13.2467 82.3071 13.9633 82.3071 14.77C82.3071 15.5833 82.4204 16.3067 82.6471 16.94C82.8804 17.5733 83.1938 18.1067 83.5871 18.54C83.9804 18.9733 84.4438 19.3067 84.9771 19.54C85.5104 19.7667 86.0838 19.88 86.6971 19.88C87.0638 19.88 87.3938 19.86 87.6871 19.82C87.9871 19.78 88.2604 19.7167 88.5071 19.63C88.7604 19.5433 88.9971 19.4333 89.2171 19.3C89.4438 19.16 89.6671 18.99 89.8871 18.79C89.9538 18.73 90.0238 18.6833 90.0971 18.65C90.1704 18.61 90.2471 18.59 90.3271 18.59ZM105.81 7.54V22H103.11V15.68H96.3198V22H93.6198V7.54H96.3198V13.76H103.11V7.54H105.81ZM14.435 33.68V37.96H19.855V40.11H14.435V46H11.735V31.54H20.855V33.68H14.435ZM25.7631 33.68V37.69H30.8231V39.76H25.7631V43.85H32.1831V46H23.0631V31.54H32.1831V33.68H25.7631ZM42.267 34.17C42.187 34.31 42.1004 34.4133 42.007 34.48C41.9204 34.54 41.8104 34.57 41.677 34.57C41.537 34.57 41.3837 34.52 41.217 34.42C41.057 34.3133 40.8637 34.1967 40.637 34.07C40.4104 33.9433 40.1437 33.83 39.837 33.73C39.537 33.6233 39.1804 33.57 38.767 33.57C38.3937 33.57 38.067 33.6167 37.787 33.71C37.507 33.7967 37.2704 33.92 37.077 34.08C36.8904 34.24 36.7504 34.4333 36.657 34.66C36.5637 34.88 36.517 35.1233 36.517 35.39C36.517 35.73 36.6104 36.0133 36.797 36.24C36.9904 36.4667 37.2437 36.66 37.557 36.82C37.8704 36.98 38.227 37.1233 38.627 37.25C39.027 37.3767 39.437 37.5133 39.857 37.66C40.277 37.8 40.687 37.9667 41.087 38.16C41.487 38.3467 41.8437 38.5867 42.157 38.88C42.4704 39.1667 42.7204 39.52 42.907 39.94C43.1004 40.36 43.197 40.87 43.197 41.47C43.197 42.1233 43.0837 42.7367 42.857 43.31C42.637 43.8767 42.3104 44.3733 41.877 44.8C41.4504 45.22 40.927 45.5533 40.307 45.8C39.687 46.04 38.977 46.16 38.177 46.16C37.717 46.16 37.2637 46.1133 36.817 46.02C36.3704 45.9333 35.9404 45.8067 35.527 45.64C35.1204 45.4733 34.737 45.2733 34.377 45.04C34.017 44.8067 33.697 44.5467 33.417 44.26L34.207 42.97C34.2737 42.8767 34.3604 42.8 34.467 42.74C34.5737 42.6733 34.687 42.64 34.807 42.64C34.9737 42.64 35.1537 42.71 35.347 42.85C35.5404 42.9833 35.7704 43.1333 36.037 43.3C36.3037 43.4667 36.6137 43.62 36.967 43.76C37.327 43.8933 37.757 43.96 38.257 43.96C39.0237 43.96 39.617 43.78 40.037 43.42C40.457 43.0533 40.667 42.53 40.667 41.85C40.667 41.47 40.5704 41.16 40.377 40.92C40.1904 40.68 39.9404 40.48 39.627 40.32C39.3137 40.1533 38.957 40.0133 38.557 39.9C38.157 39.7867 37.7504 39.6633 37.337 39.53C36.9237 39.3967 36.517 39.2367 36.117 39.05C35.717 38.8633 35.3604 38.62 35.047 38.32C34.7337 38.02 34.4804 37.6467 34.287 37.2C34.1004 36.7467 34.007 36.19 34.007 35.53C34.007 35.0033 34.1104 34.49 34.317 33.99C34.5304 33.49 34.837 33.0467 35.237 32.66C35.637 32.2733 36.1304 31.9633 36.717 31.73C37.3037 31.4967 37.977 31.38 38.737 31.38C39.5904 31.38 40.377 31.5133 41.097 31.78C41.817 32.0467 42.4304 32.42 42.937 32.9L42.267 34.17ZM55.6436 33.75H51.2836V46H48.5936V33.75H44.2336V31.54H55.6436V33.75ZM60.2358 46H57.5358V31.54H60.2358V46ZM75.8633 31.54L70.0233 46H67.5933L61.7533 31.54H63.9133C64.1466 31.54 64.3366 31.5967 64.4833 31.71C64.6299 31.8233 64.7399 31.97 64.8133 32.15L68.2233 40.97C68.3366 41.2567 68.4433 41.5733 68.5433 41.92C68.6499 42.26 68.7499 42.6167 68.8433 42.99C68.9233 42.6167 69.0099 42.26 69.1033 41.92C69.1966 41.5733 69.2999 41.2567 69.4133 40.97L72.8033 32.15C72.8566 31.9967 72.9599 31.8567 73.1133 31.73C73.2733 31.6033 73.4666 31.54 73.6933 31.54H75.8633ZM83.8477 40.54L82.0877 35.73C82.001 35.5167 81.911 35.2633 81.8177 34.97C81.7243 34.6767 81.631 34.36 81.5377 34.02C81.451 34.36 81.361 34.68 81.2677 34.98C81.1743 35.2733 81.0843 35.53 80.9977 35.75L79.2477 40.54H83.8477ZM88.5977 46H86.5177C86.2843 46 86.0943 45.9433 85.9477 45.83C85.801 45.71 85.691 45.5633 85.6177 45.39L84.5377 42.44H78.5477L77.4677 45.39C77.4143 45.5433 77.311 45.6833 77.1577 45.81C77.0043 45.9367 76.8143 46 76.5877 46H74.4877L80.1777 31.54H82.9177L88.5977 46ZM98.5644 43.78V46H90.0944V31.54H92.7844V43.78H98.5644Z" fill="black"/>
</svg>
