<svg width="271" height="116" viewBox="0 0 271 116" fill="none" xmlns="http://www.w3.org/2000/svg">
<rect width="90.2629" height="63.6466" transform="matrix(0.843372 0.53733 -0.51652 0.856275 194.875 0)" fill="#EC5242"/>
<ellipse cx="200.673" cy="30.6719" rx="5.11007" ry="4.88701" fill="white"/>
<ellipse cx="231.333" cy="82.8" rx="3.9745" ry="3.80101" fill="white"/>
<path d="M199.274 29.6708L222.816 45.3329" stroke="white"/>
<path d="M206.267 68.2638L230.504 82.9205" stroke="white"/>
<line y1="-0.5" x2="29.1063" y2="-0.5" transform="matrix(-0.57249 0.819912 -0.842804 -0.53822 222.063 44.4833)" stroke="white"/>
<path d="M44.6602 34.08L41.1402 24.46C40.9668 24.0333 40.7868 23.5267 40.6002 22.94C40.4135 22.3533 40.2268 21.72 40.0402 21.04C39.8668 21.72 39.6868 22.36 39.5002 22.96C39.3135 23.5467 39.1335 24.06 38.9602 24.5L35.4602 34.08H44.6602ZM54.1602 45H50.0002C49.5335 45 49.1535 44.8867 48.8602 44.66C48.5668 44.42 48.3468 44.1267 48.2002 43.78L46.0402 37.88H34.0602L31.9002 43.78C31.7935 44.0867 31.5868 44.3667 31.2802 44.62C30.9735 44.8733 30.5935 45 30.1402 45H25.9402L37.3202 16.08H42.8002L54.1602 45ZM62.5536 20.36V28.92H73.3936V33.22H62.5536V45H57.1536V16.08H75.3936V20.36H62.5536ZM88.5498 29.84C89.5632 29.84 90.4432 29.7133 91.1898 29.46C91.9498 29.2067 92.5698 28.86 93.0498 28.42C93.5432 27.9667 93.9098 27.4333 94.1498 26.82C94.3898 26.2067 94.5098 25.5333 94.5098 24.8C94.5098 23.3333 94.0232 22.2067 93.0498 21.42C92.0898 20.6333 90.6165 20.24 88.6298 20.24H85.1898V29.84H88.5498ZM102.39 45H97.5298C96.6098 45 95.9432 44.64 95.5298 43.92L89.4498 34.66C89.2232 34.3133 88.9698 34.0667 88.6898 33.92C88.4232 33.7733 88.0232 33.7 87.4898 33.7H85.1898V45H79.8098V16.08H88.6298C90.5898 16.08 92.2698 16.2867 93.6698 16.7C95.0832 17.1 96.2365 17.6667 97.1298 18.4C98.0365 19.1333 98.7032 20.0133 99.1298 21.04C99.5565 22.0533 99.7698 23.1733 99.7698 24.4C99.7698 25.3733 99.6232 26.2933 99.3298 27.16C99.0498 28.0267 98.6365 28.8133 98.0898 29.52C97.5565 30.2267 96.8898 30.8467 96.0898 31.38C95.3032 31.9133 94.4032 32.3333 93.3898 32.64C93.7365 32.84 94.0565 33.08 94.3498 33.36C94.6432 33.6267 94.9098 33.9467 95.1498 34.32L102.39 45ZM132.702 30.54C132.702 32.66 132.349 34.6267 131.642 36.44C130.949 38.24 129.962 39.8 128.682 41.12C127.402 42.44 125.862 43.4733 124.062 44.22C122.262 44.9533 120.262 45.32 118.062 45.32C115.876 45.32 113.882 44.9533 112.082 44.22C110.282 43.4733 108.736 42.44 107.442 41.12C106.162 39.8 105.169 38.24 104.462 36.44C103.756 34.6267 103.402 32.66 103.402 30.54C103.402 28.42 103.756 26.46 104.462 24.66C105.169 22.8467 106.162 21.28 107.442 19.96C108.736 18.64 110.282 17.6133 112.082 16.88C113.882 16.1333 115.876 15.76 118.062 15.76C119.529 15.76 120.909 15.9333 122.202 16.28C123.496 16.6133 124.682 17.0933 125.762 17.72C126.842 18.3333 127.809 19.0867 128.662 19.98C129.529 20.86 130.262 21.8467 130.862 22.94C131.462 24.0333 131.916 25.22 132.222 26.5C132.542 27.78 132.702 29.1267 132.702 30.54ZM127.202 30.54C127.202 28.9533 126.989 27.5333 126.562 26.28C126.136 25.0133 125.529 23.94 124.742 23.06C123.956 22.18 122.996 21.5067 121.862 21.04C120.742 20.5733 119.476 20.34 118.062 20.34C116.649 20.34 115.376 20.5733 114.242 21.04C113.122 21.5067 112.162 22.18 111.362 23.06C110.576 23.94 109.969 25.0133 109.542 26.28C109.116 27.5333 108.902 28.9533 108.902 30.54C108.902 32.1267 109.116 33.5533 109.542 34.82C109.969 36.0733 110.576 37.14 111.362 38.02C112.162 38.8867 113.122 39.5533 114.242 40.02C115.376 40.4867 116.649 40.72 118.062 40.72C119.476 40.72 120.742 40.4867 121.862 40.02C122.996 39.5533 123.956 38.8867 124.742 38.02C125.529 37.14 126.136 36.0733 126.562 34.82C126.989 33.5533 127.202 32.1267 127.202 30.54Z" fill="#EC5242"/>
<path d="M157.627 20.5H148.907V45H143.527V20.5H134.807V16.08H157.627V20.5ZM166.811 20.36V28.38H176.931V32.52H166.811V40.7H179.651V45H161.411V16.08H179.651V20.36H166.811ZM203.654 38.18C203.948 38.18 204.208 38.2933 204.434 38.52L206.554 40.82C205.381 42.2733 203.934 43.3867 202.214 44.16C200.508 44.9333 198.454 45.32 196.054 45.32C193.908 45.32 191.974 44.9533 190.254 44.22C188.548 43.4867 187.088 42.4667 185.874 41.16C184.661 39.8533 183.728 38.2933 183.074 36.48C182.434 34.6667 182.114 32.6867 182.114 30.54C182.114 28.3667 182.461 26.38 183.154 24.58C183.848 22.7667 184.821 21.2067 186.074 19.9C187.341 18.5933 188.848 17.58 190.594 16.86C192.341 16.1267 194.274 15.76 196.394 15.76C198.501 15.76 200.368 16.1067 201.994 16.8C203.634 17.4933 205.028 18.4 206.174 19.52L204.374 22.02C204.268 22.18 204.128 22.32 203.954 22.44C203.794 22.56 203.568 22.62 203.274 22.62C203.074 22.62 202.868 22.5667 202.654 22.46C202.441 22.34 202.208 22.2 201.954 22.04C201.701 21.8667 201.408 21.68 201.074 21.48C200.741 21.28 200.354 21.1 199.914 20.94C199.474 20.7667 198.961 20.6267 198.374 20.52C197.801 20.4 197.134 20.34 196.374 20.34C195.081 20.34 193.894 20.5733 192.814 21.04C191.748 21.4933 190.828 22.16 190.054 23.04C189.281 23.9067 188.681 24.9733 188.254 26.24C187.828 27.4933 187.614 28.9267 187.614 30.54C187.614 32.1667 187.841 33.6133 188.294 34.88C188.761 36.1467 189.388 37.2133 190.174 38.08C190.961 38.9467 191.888 39.6133 192.954 40.08C194.021 40.5333 195.168 40.76 196.394 40.76C197.128 40.76 197.788 40.72 198.374 40.64C198.974 40.56 199.521 40.4333 200.014 40.26C200.521 40.0867 200.994 39.8667 201.434 39.6C201.888 39.32 202.334 38.98 202.774 38.58C202.908 38.46 203.048 38.3667 203.194 38.3C203.341 38.22 203.494 38.18 203.654 38.18ZM234.62 16.08V45H229.22V32.36H215.64V45H210.24V16.08H215.64V28.52H229.22V16.08H234.62ZM51.87 68.36V76.92H62.71V81.22H51.87V93H46.47V64.08H64.71V68.36H51.87ZM74.5263 68.36V76.38H84.6463V80.52H74.5263V88.7H87.3663V93H69.1263V64.08H87.3663V68.36H74.5263ZM107.534 69.34C107.374 69.62 107.201 69.8267 107.014 69.96C106.841 70.08 106.621 70.14 106.354 70.14C106.074 70.14 105.767 70.04 105.434 69.84C105.114 69.6267 104.727 69.3933 104.274 69.14C103.821 68.8867 103.287 68.66 102.674 68.46C102.074 68.2467 101.361 68.14 100.534 68.14C99.7874 68.14 99.1341 68.2333 98.5741 68.42C98.0141 68.5933 97.5407 68.84 97.1541 69.16C96.7807 69.48 96.5007 69.8667 96.3141 70.32C96.1274 70.76 96.0341 71.2467 96.0341 71.78C96.0341 72.46 96.2207 73.0267 96.5941 73.48C96.9807 73.9333 97.4874 74.32 98.1141 74.64C98.7407 74.96 99.4541 75.2467 100.254 75.5C101.054 75.7533 101.874 76.0267 102.714 76.32C103.554 76.6 104.374 76.9333 105.174 77.32C105.974 77.6933 106.687 78.1733 107.314 78.76C107.941 79.3333 108.441 80.04 108.814 80.88C109.201 81.72 109.394 82.74 109.394 83.94C109.394 85.2467 109.167 86.4733 108.714 87.62C108.274 88.7533 107.621 89.7467 106.754 90.6C105.901 91.44 104.854 92.1067 103.614 92.6C102.374 93.08 100.954 93.32 99.3541 93.32C98.4341 93.32 97.5274 93.2267 96.6341 93.04C95.7407 92.8667 94.8807 92.6133 94.0541 92.28C93.2407 91.9467 92.4741 91.5467 91.7541 91.08C91.0341 90.6133 90.3941 90.0933 89.8341 89.52L91.4141 86.94C91.5474 86.7533 91.7207 86.6 91.9341 86.48C92.1474 86.3467 92.3741 86.28 92.6141 86.28C92.9474 86.28 93.3074 86.42 93.6941 86.7C94.0807 86.9667 94.5407 87.2667 95.0741 87.6C95.6074 87.9333 96.2274 88.24 96.9341 88.52C97.6541 88.7867 98.5141 88.92 99.5141 88.92C101.047 88.92 102.234 88.56 103.074 87.84C103.914 87.1067 104.334 86.06 104.334 84.7C104.334 83.94 104.141 83.32 103.754 82.84C103.381 82.36 102.881 81.96 102.254 81.64C101.627 81.3067 100.914 81.0267 100.114 80.8C99.3141 80.5733 98.5007 80.3267 97.6741 80.06C96.8474 79.7933 96.0341 79.4733 95.2341 79.1C94.4341 78.7267 93.7207 78.24 93.0941 77.64C92.4674 77.04 91.9607 76.2933 91.5741 75.4C91.2007 74.4933 91.0141 73.38 91.0141 72.06C91.0141 71.0067 91.2207 69.98 91.6341 68.98C92.0607 67.98 92.6741 67.0933 93.4741 66.32C94.2741 65.5467 95.2607 64.9267 96.4341 64.46C97.6074 63.9933 98.9541 63.76 100.474 63.76C102.181 63.76 103.754 64.0267 105.194 64.56C106.634 65.0933 107.861 65.84 108.874 66.8L107.534 69.34ZM134.287 68.5H125.567V93H120.187V68.5H111.467V64.08H134.287V68.5ZM143.472 93H138.072V64.08H143.472V93ZM174.727 64.08L163.047 93H158.187L146.507 64.08H150.827C151.293 64.08 151.673 64.1933 151.967 64.42C152.26 64.6467 152.48 64.94 152.627 65.3L159.447 82.94C159.673 83.5133 159.887 84.1467 160.087 84.84C160.3 85.52 160.5 86.2333 160.687 86.98C160.847 86.2333 161.02 85.52 161.207 84.84C161.393 84.1467 161.6 83.5133 161.827 82.94L168.607 65.3C168.713 64.9933 168.92 64.7133 169.227 64.46C169.547 64.2067 169.933 64.08 170.387 64.08H174.727ZM190.695 82.08L187.175 72.46C187.002 72.0333 186.822 71.5267 186.635 70.94C186.449 70.3533 186.262 69.72 186.075 69.04C185.902 69.72 185.722 70.36 185.535 70.96C185.349 71.5467 185.169 72.06 184.995 72.5L181.495 82.08H190.695ZM200.195 93H196.035C195.569 93 195.189 92.8867 194.895 92.66C194.602 92.42 194.382 92.1267 194.235 91.78L192.075 85.88H180.095L177.935 91.78C177.829 92.0867 177.622 92.3667 177.315 92.62C177.009 92.8733 176.629 93 176.175 93H171.975L183.355 64.08H188.835L200.195 93ZM220.129 88.56V93H203.189V64.08H208.569V88.56H220.129Z" fill="black"/>
</svg>
