<svg xmlns="http://www.w3.org/2000/svg" xmlns:xlink="http://www.w3.org/1999/xlink" width="1em" height="1em" preserveAspectRatio="xMidYMid meet" viewBox="0 0 20 20" style="-ms-transform: rotate(360deg); -webkit-transform: rotate(360deg); transform: rotate(360deg);"><path fill="currentColor" d="M4.46 5.16L5 7.46l-.54 2.29l2.01 1.24L7.7 13l2.3-.54l2.3.54l1.23-2.01l2.01-1.24L15 7.46l.54-2.3l-2-1.24l-1.24-2.01l-2.3.55l-2.29-.54l-1.25 2zm5.55 6.34a3.999 3.999 0 1 1 0-8c2.2 0 3.99 1.79 3.99 3.99c0 2.22-1.79 4.01-3.99 4.01zm-.02-1C8.33 10.5 7 9.16 7 7.5c0-1.65 1.33-3 2.99-3S13 5.85 13 7.5c0 1.66-1.35 3-3.01 3zm3.84 1.1l-1.28 2.24l-2.08-.47L13 19.2l1.4-2.2h2.5zm-7.7.07l1.25 2.25l2.13-.51L7 19.2L5.6 17H3.1z"/></svg>