<svg xmlns="http://www.w3.org/2000/svg" xmlns:xlink="http://www.w3.org/1999/xlink" width="1em" height="1em" preserveAspectRatio="xMidYMid meet" viewBox="0 0 24 24" style="-ms-transform: rotate(360deg); -webkit-transform: rotate(360deg); transform: rotate(360deg);"><path fill="#ec5242" d="M12 2a10 10 0 1 0 10 10A10 10 0 0 0 12 2Zm2.71 11.29a1 1 0 0 1 0 1.42a1 1 0 0 1-1.42 0L12 13.41l-1.29 1.3a1 1 0 0 1-1.42 0a1 1 0 0 1 0-1.42l1.3-1.29l-1.3-1.29a1 1 0 0 1 1.42-1.42l1.29 1.3l1.29-1.3a1 1 0 0 1 1.42 1.42L13.41 12Z"/></svg>