<svg xmlns="http://www.w3.org/2000/svg" xmlns:xlink="http://www.w3.org/1999/xlink" width="1em" height="1em" preserveAspectRatio="xMidYMid meet" viewBox="0 0 48 48" style="-ms-transform: rotate(360deg); -webkit-transform: rotate(360deg); transform: rotate(360deg);"><g fill="#fff" fill-rule="evenodd" clip-rule="evenodd"><path d="M17 7a3 3 0 0 1 3-3h8a3 3 0 0 1 3 3v2a3 3 0 0 1-3 3h-8a3 3 0 0 1-3-3V7Zm3-1a1 1 0 0 0-1 1v2a1 1 0 0 0 1 1h8a1 1 0 0 0 1-1V7a1 1 0 0 0-1-1h-8Z"/><path d="M18 7h-5a3 3 0 0 0-3 3v31a3 3 0 0 0 3 3h22a3 3 0 0 0 3-3V10a3 3 0 0 0-3-3h-5v2a2 2 0 0 1-2 2h-8a2 2 0 0 1-2-2V7Zm-3 14a1 1 0 0 1 1-1h7a1 1 0 1 1 0 2h-7a1 1 0 0 1-1-1Zm1-6a1 1 0 1 0 0 2h15.5a1 1 0 1 0 0-2H16Zm1 14v2h2v-2h-2Zm-1-2a1 1 0 0 0-1 1v4a1 1 0 0 0 1 1h4a1 1 0 0 0 1-1v-4a1 1 0 0 0-1-1h-4Zm15 2a3 3 0 1 1-6 0a3 3 0 1 1 6 0Zm-3 4.318c-2.003 0-6 1.066-6 3.182V39h12v-2.5c0-2.116-3.997-3.182-6-3.182Z"/></g></svg>