<svg xmlns="http://www.w3.org/2000/svg" xmlns:xlink="http://www.w3.org/1999/xlink" width="1em" height="1em" preserveAspectRatio="xMidYMid meet" viewBox="0 0 24 24" style="-ms-transform: rotate(360deg); -webkit-transform: rotate(360deg); transform: rotate(360deg);"><path fill="#d3d3d3" d="M.5 10.1a.505.505 0 0 0-.197.048a.497.497 0 0 0-.25.68l1.138 2.475c.179.38.38.592.721.592c.342 0 .542-.22.72-.592l1.003-2.186a.144.144 0 0 1 .144-.092a.16.16 0 0 1 .157.16v2.118a.535.535 0 1 0 1.066 0v-1.73a.531.531 0 0 1 .566-.552a.52.52 0 0 1 .541.551v1.73a.531.531 0 0 0 .53.593a.539.539 0 0 0 .535-.592v-1.73a.531.531 0 0 1 .564-.552a.52.52 0 0 1 .543.551v1.73a.531.531 0 0 0 .528.593a.535.535 0 0 0 .535-.592v-1.969a1.234 1.234 0 0 0-1.283-1.23a1.647 1.647 0 0 0-1.14.486a1.26 1.26 0 0 0-1.095-.483a1.807 1.807 0 0 0-1.074.483a1.287 1.287 0 0 0-.961-.483a1.177 1.177 0 0 0-1.158.786l-.729 1.716l-.933-2.203l.011-.004A.505.505 0 0 0 .5 10.1zm18.43.06a.27.27 0 0 0-.266.274h.002v3.142a.27.27 0 1 0 .535 0v-1.222c0-1.037.571-1.56 1.27-1.643a.266.266 0 0 0 .238-.274a.258.258 0 0 0-.266-.269a1.465 1.465 0 0 0-1.242.88v-.614a.266.266 0 0 0-.271-.274zm-6.735.008a.273.273 0 0 0-.25.217l-.912 2.627l-.902-2.62a.28.28 0 0 0-.274-.22a.266.266 0 0 0-.27.258a.493.493 0 0 0 .034.144l1.09 3.037l.02-.007a.319.319 0 0 0 .298.242a.3.3 0 0 0 .293-.242l.903-2.583l.896 2.583a.3.3 0 0 0 .293.242h.018a.319.319 0 0 0 .293-.242l1.097-3.038a.512.512 0 0 0 .033-.144a.258.258 0 0 0-.265-.25a.262.262 0 0 0-.258.209l-.918 2.63l-.904-2.626a.285.285 0 0 0-.278-.217h-.025a.273.273 0 0 0-.012 0zm10.168.008a1.75 1.75 0 0 0-1.691 1.851a1.765 1.765 0 0 0 1.76 1.858l-.008.013a1.784 1.784 0 0 0 1.33-.539a.228.228 0 0 0 .082-.17a.228.228 0 0 0-.379-.168a1.435 1.435 0 0 1-1.018.415a1.237 1.237 0 0 1-1.24-1.207h2.555a.247.247 0 0 0 .246-.247c0-.945-.593-1.806-1.637-1.806zm-5.744.002a1.571 1.571 0 0 0-.158.006a2.384 2.384 0 0 0-1.078.205a.22.22 0 0 0-.143.222a.24.24 0 0 0 .235.229a.266.266 0 0 0 .095-.024a1.822 1.822 0 0 1 .834-.162c.691 0 1.07.334 1.07.979v.125a3.796 3.796 0 0 0-1.103-.15c-.892 0-1.52.4-1.52 1.16l-.003-.004c0 .736.671 1.117 1.34 1.117a1.575 1.575 0 0 0 1.298-.62v.343a.247.247 0 0 0 .254.25a.254.254 0 0 0 .258-.262v-1.983a1.416 1.416 0 0 0-.379-1.046a1.571 1.571 0 0 0-1-.385zm5.719.43c.714 0 1.085.565 1.139 1.214h-2.278a1.222 1.222 0 0 1 1.139-1.215zm-5.885 1.382a3.75 3.75 0 0 1 1.057.153v.347c0 .57-.539.973-1.2.973c-.485 0-.904-.261-.904-.713c0-.467.375-.76 1.047-.76Z"/></svg>